<?xml version="1.0" encoding="utf-8"?>
<!-- Generator: Adobe Illustrator 19.0.0, SVG Export Plug-In . SVG Version: 6.00 Build 0)  -->
<svg version="1.1" id="Layer_1" xmlns="http://www.w3.org/2000/svg" xmlns:xlink="http://www.w3.org/1999/xlink" x="0px" y="0px"
	 viewBox="0 0 75.3 29.3" style="enable-background:new 0 0 75.3 29.3;" xml:space="preserve">
<style type="text/css">
	.st0{fill:none;stroke:#FFC717;stroke-width:8;stroke-linecap:round;stroke-linejoin:round;stroke-miterlimit:10;}
</style>
<path class="st0" d="M11.4,11C8.9,15.3,6.5,19.7,4,24.1c7-8.9,8.9-11.2,15.9-20.1c-2.9,9.6-1.1,12.2-5.2,21
	c3.8-4.4,7.7-8.8,11.5-13.2c-0.7,4.6-2.4,9-4.8,12.5c5.2-4.6,10.2-9.4,15.1-14.6c0.3,4.8-1.1,9.8-3.7,13.2
	c4.3-3.6,8.5-7.2,12.8-10.8c-0.7,2.9-1.4,5.8-2.1,8.7c4-3.8,8-7.5,12-11.3c-1.6,5.2-3.1,10.5-4.7,15.7c3.5-4.7,6.9-9.6,10.1-14.7
	c-0.9,3-1.7,5.9-2.6,8.9c2.8-2,5.3-4.6,7.5-7.5c-1.8,2.3-2.5,5.8-1.9,8.9c2.5-2.9,4.9-5.9,7.4-8.8c0.8,3.3-0.1,7.2-2.3,9.5"/>
</svg>
