<svg xmlns="http://www.w3.org/2000/svg" width="18" height="34" viewBox="0 0 18 34"><g fill="none"><path fill="#ADACB2" d="M6.79426112,22.3642059 C3.8576595,24.4955889 3.25835304,28.4281406 5.47578692,31.1599132 C7.69322077,33.8916858 11.8584006,34.4020169 14.765037,32.270634 C17.7016386,30.139251 18.300945,26.2066992 16.0835111,23.4749265 C13.8960426,20.743154 9.73086276,20.2628422 6.79426112,22.3642059 Z" opacity=".3"/><path fill="#434142" d="M10.8395797,22.9045564 L11.4089208,27.257381 C10.8096143,28.0378873 10.120412,27.5275562 10.120412,27.5275562 L8.05280469,22.7544591 L10.8395797,22.9045564 Z"/><path fill="#ADACB2" d="M12.908529,10.6696274 C9.29223891,7.7531674 4.36629504,8.14423741 1.90612545,11.5431068 C-0.554044145,14.9419761 0.383176724,20.0615621 3.99946685,22.9780222 C7.61575697,25.8944822 12.5417008,25.5034122 15.0018704,22.1045429 C17.46204,18.7056735 16.5248192,13.5860875 12.908529,10.6696274 Z"/><path fill="#C2C3C8" d="M2.95869981,7.83477792 C2.95869981,7.83477792 4.54686191,18.0113813 5.26602966,18.9720047 C6.67439983,20.8031929 9.34131355,21.0733682 11.2890595,19.6024138 C12.5775684,18.6117709 13.2068401,17.0807775 13.0570136,15.6398425 L13.0570136,15.5798035 L12.9671176,15.0694724 L11.6786087,7.71470001 L2.95869981,7.83477792 Z"/><path fill="#D7D8DC" d="M3.67786756,1.44062887 C0.861127225,3.60203137 0.201890123,7.53458314 2.23953207,10.1762973 C4.27717401,12.848031 8.20263132,13.2683036 11.0493369,11.1069012 C13.8660773,8.94549865 14.5253144,5.01294688 12.4876724,2.37123272 C10.4500305,-0.330520401 6.49460789,-0.72077363 3.67786756,1.44062887 Z"/></g></svg>